<svg width="511" height="400" viewBox="0 0 511 400" fill="none" xmlns="http://www.w3.org/2000/svg">
<mask id="mask0_1297_1405" style="mask-type:alpha" maskUnits="userSpaceOnUse" x="134" y="125" width="256" height="275">
<path d="M168.254 125.932L371.15 174.344C382.931 177.155 390.799 188.27 389.534 200.317L370.507 381.489C369.315 392.841 359.145 401.077 347.793 399.885C347.669 399.872 347.545 399.858 347.42 399.843L152.861 375.829C142.359 374.533 134.532 365.514 134.728 354.934L138.55 148.939C138.797 135.625 149.791 125.031 163.105 125.278C164.84 125.31 166.567 125.53 168.254 125.932Z" fill="white"/>
</mask>
<g mask="url(#mask0_1297_1405)">
<path d="M168.254 125.932L371.15 174.344C382.931 177.155 390.799 188.27 389.534 200.317L370.507 381.489C369.315 392.841 359.145 401.077 347.793 399.885C347.669 399.872 347.545 399.858 347.42 399.843L152.861 375.829C142.359 374.533 134.532 365.514 134.728 354.934L138.55 148.939C138.797 135.625 149.791 125.031 163.105 125.278C164.84 125.31 166.567 125.53 168.254 125.932Z" fill="#F2FF9E"/>
<path fill-rule="evenodd" clip-rule="evenodd" d="M134.384 346.294L254.943 260.698L297.263 293.176L238.95 392.824L137.582 383.228C135.93 372.371 134.864 364.169 134.384 358.624C133.903 353.079 133.903 348.969 134.384 346.294Z" fill="#CEDF62"/>
</g>
<path d="M249.285 146.007C249.287 146.074 249.284 146.142 249.274 146.21L243.832 185.684C246.697 186.518 248.791 189.164 248.791 192.299C248.791 196.081 245.744 199.151 241.97 199.188L238.665 223.159C241.404 224.07 243.378 226.653 243.378 229.698C243.378 233.393 240.469 236.409 236.815 236.579L230.821 280.059C230.728 280.732 230.107 281.202 229.434 281.109C228.761 281.017 228.291 280.396 228.383 279.723L234.376 236.257C231.605 235.365 229.6 232.765 229.6 229.698C229.6 225.98 232.545 222.949 236.229 222.813L239.544 198.774C236.9 197.811 235.013 195.275 235.013 192.299C235.013 188.668 237.821 185.694 241.384 185.429L246.837 145.874C246.844 145.821 246.855 145.768 246.869 145.717L177.441 171.385L221.483 138.415L272.168 150.471L292.836 195.251L249.285 146.007ZM352.19 240.433L354.53 241.196L304.954 393.206L302.615 392.444L352.19 240.433ZM194.418 304.495L135.121 345.831L138.566 146.042L148.806 173.943L194.418 304.495Z" fill="#B1BF58"/>
<mask id="mask1_1297_1405" style="mask-type:alpha" maskUnits="userSpaceOnUse" x="232" y="4" width="106" height="148">
<path d="M285.002 121.214L284.982 151.587L233.016 148.758L232.491 85.6565C232.305 84.0846 232.209 82.485 232.209 80.8631V44.3601C232.209 22.0747 250.275 4.00879 272.56 4.00879H297.341C319.627 4.00879 337.693 22.0747 337.693 44.3601V80.8631C337.693 103.148 319.627 121.214 297.341 121.214H285.002Z" fill="white"/>
</mask>
<g mask="url(#mask1_1297_1405)">
<path d="M277.461 120.564L272.167 150.471L221.482 138.661L231.922 76.4274C232.011 74.8471 232.195 73.2552 232.477 71.6579L238.815 35.7095C242.685 13.7626 263.614 -0.8917 285.561 2.97812L309.965 7.28131C331.912 11.1511 346.566 32.0797 342.696 54.0265L336.358 89.9749C332.488 111.922 311.559 126.576 289.613 122.706L277.461 120.564Z" fill="#81A6FF"/>
</g>
<mask id="mask2_1297_1405" style="mask-type:alpha" maskUnits="userSpaceOnUse" x="232" y="3" width="106" height="149">
<path d="M284.813 121.199L284.793 151.571L232.827 148.742L232.301 85.6409C232.115 84.069 232.02 82.4694 232.02 80.8475V44.3445C232.02 22.0591 250.085 3.99316 272.371 3.99316H297.152C319.437 3.99316 337.503 22.0591 337.503 44.3445V80.8475C337.503 103.133 319.437 121.199 297.152 121.199H284.813Z" fill="white"/>
</mask>
<g mask="url(#mask2_1297_1405)">
<path d="M277.271 120.548L271.977 150.456L221.292 138.645L231.732 76.4118C231.822 74.8315 232.006 73.2396 232.287 71.6423L238.626 35.6938C242.496 13.747 263.424 -0.907325 285.371 2.9625L309.776 7.26569C331.723 11.1355 346.377 32.064 342.507 54.0109L336.168 89.9593C332.299 111.906 311.37 126.56 289.423 122.691L277.271 120.548Z" fill="#FF8181"/>
<path fill-rule="evenodd" clip-rule="evenodd" d="M238.706 43.4421L335.402 8.25779L278.969 -4.04443L234.277 4.53073L238.706 43.4421Z" fill="#383838"/>
</g>
<path d="M217.933 18.0347L215.045 17.4208C200.69 14.3695 186.579 23.5331 183.528 37.8881L182.914 40.7761C179.863 55.1312 189.026 69.2418 203.381 72.2931L206.269 72.9069C220.624 75.9582 234.735 66.7946 237.786 52.4396L238.4 49.5516C241.451 35.1965 232.288 21.0859 217.933 18.0347Z" fill="#383838"/>
<path fill-rule="evenodd" clip-rule="evenodd" d="M289.883 97.0796L298.344 103.848C300.058 105.22 302.085 106.145 304.244 106.541L310.105 107.618C311.978 107.962 313.913 107.615 315.551 106.641L322.115 102.739L317.167 97.7908C316.258 96.8824 314.964 96.4744 313.699 96.6976L311.535 97.0796L307.413 94.6442C306.581 94.1526 305.598 93.9842 304.65 94.1709L289.883 97.0796Z" fill="#383838"/>
<path d="M341.798 56.9745C334.868 54.549 327.366 55.4161 318.792 58.7239" stroke="#4F72C5" stroke-width="3" stroke-linecap="round" stroke-linejoin="round"/>
<path fill-rule="evenodd" clip-rule="evenodd" d="M303.447 89.864L319.406 92.9583C320.74 93.2169 322.031 92.3452 322.29 91.0111C322.363 90.6362 322.347 90.2494 322.244 89.8815C320.387 83.224 319.377 78.0402 319.216 74.3301C319.026 69.9341 318.206 68.1298 316.756 68.9171L317.442 57.122L316.211 57.122C310.425 71.3042 307.225 79.4237 306.613 81.4804C306.232 82.7599 301.045 83.3558 300.517 85.8942C300.42 86.3614 300.569 87.0318 300.966 87.9055C301.427 88.9217 302.351 89.6516 303.447 89.864Z" fill="#C55858"/>
<path d="M363.684 145.213L355.279 143.579L332.738 259.542L341.143 261.176L363.684 145.213Z" fill="#8C8C8C"/>
<path d="M353.128 181.824L351.353 181.479C345.751 180.39 340.326 184.048 339.237 189.651L326.25 256.466C325.161 262.069 328.819 267.493 334.422 268.582L336.196 268.927C341.799 270.016 347.223 266.357 348.312 260.755L361.3 193.939C362.389 188.337 358.73 182.913 353.128 181.824Z" fill="#383838"/>
<path fill-rule="evenodd" clip-rule="evenodd" d="M361.552 128.69L363.327 129.035C368.929 130.124 372.588 135.548 371.499 141.15L369.732 150.24C369.21 152.928 366.909 154.904 364.173 155.014C361.67 155.115 359.543 154.995 357.79 154.654C355.956 154.298 353.728 153.543 351.107 152.39C348.581 151.279 347.161 148.567 347.688 145.858L349.436 136.862C350.525 131.259 355.95 127.601 361.552 128.69Z" fill="#383838"/>
<path fill-rule="evenodd" clip-rule="evenodd" d="M318.248 119.164C307.843 102.513 307.122 82.9782 312.764 65.8319C317.118 52.6021 324.828 40.7836 337.484 32.8757C347.39 26.6852 357.935 24.3221 368.616 24.0043C375.022 23.8138 381.555 23.7672 387.808 25.7266C394.116 27.7036 402.307 31.4936 407.983 35.5684C414.815 40.4727 418.895 46.0887 423.472 53.413C429.145 62.4925 432.092 72.6162 432.834 82.5629C433.227 87.832 432.308 94.8291 431.358 99.786C429.922 107.273 427.633 112.513 423.484 119.224C418.718 126.931 412.456 134.565 404.236 139.702C398.027 143.581 391.514 146.415 384.855 147.765C374.988 149.765 364.827 148.851 355.084 146.042C348.594 144.171 341.204 140.975 335.4 137.185C328.279 132.534 323.018 126.798 318.248 119.164ZM325.5 114.791C341.248 139.993 374.285 147.757 399.29 132.132C424.295 116.507 431.8 83.4104 416.052 58.2084C400.304 33.0064 367.267 25.2426 342.262 40.8675C317.257 56.4924 309.752 89.5892 325.5 114.791Z" fill="#898989"/>
<mask id="mask3_1297_1405" style="mask-type:alpha" maskUnits="userSpaceOnUse" x="315" y="32" width="111" height="109">
<path d="M370.499 140.174C382.488 140.174 393.704 135.802 402.659 129.102C404.842 127.468 407.065 125.946 408.996 124.068C416.047 117.207 420.901 108.632 423.426 99.0868C424.505 95.0055 425.083 90.6993 425.083 86.1858C425.083 61.587 407.899 41.9855 385.15 35.4738C380.325 34.0925 375.775 32.1973 370.499 32.1973C353.19 32.1973 338.4 40.9647 328.4 53.3966C320.985 62.6153 315.916 73.4899 315.916 86.1858C315.916 96.5407 319.358 106.261 324.468 114.478C334.072 129.922 350.823 140.174 370.499 140.174Z" fill="white"/>
</mask>
<g mask="url(#mask3_1297_1405)">
<path d="M324.714 114.795C331.067 124.962 340.719 132.157 351.147 136.201C353.689 137.186 356.157 138.265 358.774 138.907C368.328 141.251 378.173 140.823 387.605 137.906C391.639 136.659 395.597 134.867 399.424 132.475C420.285 119.44 427.802 94.4793 421.269 71.7369C419.883 66.9125 419.08 62.0501 416.284 57.576C407.111 42.8965 391.839 35.0004 375.997 33.1079C364.25 31.7045 352.341 33.1684 341.574 39.8962C332.793 45.3834 326.374 53.4531 322.113 62.1411C314.105 78.4705 314.287 98.1085 324.714 114.795Z" fill="white"/>
<path opacity="0.65332" fill-rule="evenodd" clip-rule="evenodd" d="M380.452 77.5119C378.103 76.5177 376.338 75.9727 373.731 75.4185C371.016 74.8414 368.398 74.7312 365.714 74.7005C362.582 74.6646 359.582 75.2377 356.491 75.9459C353.863 76.5482 349.918 77.9778 344.656 80.2349C348.203 84.3152 350.989 87.1404 353.014 88.7105C356.105 91.107 359.027 93.3791 362.634 94.7728C364.122 95.3477 365.925 95.9822 367.647 96.4642L339.323 138.385L316.83 107.137L397.776 22.2473L410.239 33.4266L380.452 77.5119ZM388.994 82.3773C387.864 81.5371 386.649 80.7372 385.393 79.9999L414.215 38.0432L417.327 38.9946L388.994 82.3773ZM379.06 97.5866L346.995 146.682L344.25 139.892L373.385 97.4802C374.165 97.5469 374.95 97.594 375.757 97.637C376.861 97.6957 377.962 97.6734 379.06 97.5866Z" fill="#E0E0E0"/>
<path d="M380.451 98.7441C378.798 98.948 377.237 99.005 375.646 98.9204C373.722 98.818 372.317 98.7029 371 98.5083L368.499 110.731C368.363 111.397 367.713 111.826 367.047 111.69C366.382 111.553 365.952 110.903 366.089 110.238L368.584 98.0451C366.673 97.5921 364.404 96.8484 362.144 95.9753C361.137 95.5862 360.172 95.1339 359.195 94.5961L352.038 100.724C351.522 101.166 350.746 101.106 350.304 100.589C349.862 100.073 349.922 99.2967 350.438 98.8548L356.984 93.2505C356.294 92.7941 355.582 92.2912 354.83 91.7351C354.103 91.1972 353.555 90.7772 352.215 89.7377C350.112 88.1072 347.277 85.233 343.681 81.097C343.134 80.4677 343.358 79.4879 344.125 79.1592C349.449 76.8753 353.454 75.4242 356.17 74.8017C360.137 73.8928 362.827 73.4925 365.682 73.5253C369.146 73.5649 371.477 73.7465 373.941 74.2701C376.687 74.854 378.543 75.4352 381.02 76.491C384.044 77.7803 387.111 79.5302 389.698 81.4575C391.965 83.1462 395.198 86.2928 399.431 90.9191C399.998 91.5379 399.792 92.5294 399.027 92.8723C395.075 94.6426 392.108 95.835 390.106 96.4546C387.381 97.2977 385.069 97.9221 382.968 98.3365L386.071 105.168C386.352 105.787 386.079 106.516 385.46 106.797C384.841 107.078 384.112 106.805 383.831 106.186L380.451 98.7441ZM389.379 94.1041C391.001 93.6022 393.364 92.6734 396.454 91.3208C392.888 87.488 390.137 84.8525 388.228 83.4306C385.8 81.6213 382.903 79.9682 380.055 78.7544C377.726 77.7617 376.023 77.2281 373.429 76.6768C371.158 76.194 368.969 76.0235 365.654 75.9855C363.035 75.9555 360.512 76.3309 356.72 77.2C354.442 77.7221 351.08 78.909 346.658 80.7579C349.626 84.0991 351.988 86.4485 353.722 87.7932C355.048 88.8211 355.586 89.2341 356.293 89.7572C358.824 91.6291 360.838 92.8328 363.031 93.6802C365.421 94.6037 367.82 95.3749 369.696 95.7737C371.487 96.1543 373.08 96.3199 375.777 96.4634C379.671 96.6707 383.483 95.9283 389.379 94.1041ZM370.772 91.2987C369.241 90.9733 367.539 89.272 366.843 87.9293C366.251 86.7882 366.371 85.5602 366.668 84.1623C366.969 82.7494 367.672 81.7231 368.693 80.9209C369.87 79.9955 371.449 79.4201 372.966 79.7425C374.692 80.1093 376.947 80.9116 377.578 82.5134C377.982 83.54 378.406 85.5647 378.153 86.7532C377.907 87.9111 376.957 89.0786 376.201 89.8447C374.969 91.092 372.526 91.6715 370.772 91.2987Z" fill="#383838"/>
</g>
<path fill-rule="evenodd" clip-rule="evenodd" d="M268.566 57.2309C269.777 63.3035 274.758 67.7492 283.509 70.568C292.26 73.3868 298.867 72.5366 303.329 68.0174C300.105 60.776 295.477 56.2102 289.445 54.32C283.413 52.4297 276.454 53.4 268.566 57.2309Z" fill="white"/>
<path fill-rule="evenodd" clip-rule="evenodd" d="M291.28 67.7891C292.708 67.8889 294.113 67.2068 294.951 66.0374C295.465 65.319 295.71 64.3975 295.779 63.4174C295.849 62.4114 295.755 61.5034 295.323 60.7077C294.65 59.4662 293.337 58.5604 291.932 58.4622C290.698 58.3759 289.46 58.6714 288.629 59.5702C287.91 60.3493 287.517 61.6379 287.434 62.8339C287.351 64.0171 287.571 65.3646 288.164 66.2322C288.861 67.2532 290.034 67.702 291.28 67.7891Z" fill="#383838"/>
<path fill-rule="evenodd" clip-rule="evenodd" d="M268.357 57.2692C278.096 58.2395 285.643 59.5435 290.999 61.1813C296.354 62.8191 300.559 65.1093 303.613 68.0517C302.168 60.6316 297.38 55.7501 289.251 53.4073C281.121 51.0646 274.157 52.3519 268.357 57.2692Z" fill="#C55858"/>
<path fill-rule="evenodd" clip-rule="evenodd" d="M306.277 65.6172L283.729 45.4101L285.205 37.7827L312.762 63.6174C312.238 65.7399 310.093 67.0361 307.971 66.5125C307.341 66.3573 306.76 66.0498 306.277 65.6172Z" fill="#383838"/>
<path fill-rule="evenodd" clip-rule="evenodd" d="M221.484 138.415L210.988 106.198C206.5 92.4224 209.46 77.3053 218.813 66.2401L238.707 42.7036L221.484 138.415Z" fill="#383838"/>
<mask id="mask4_1297_1405" style="mask-type:alpha" maskUnits="userSpaceOnUse" x="255" y="184" width="127" height="108">
<path d="M255.432 262L332.056 191.676C334.246 189.666 336.926 188.269 339.827 187.624L338.351 194.021L365.14 184.86C368.614 183.671 372.41 185.417 373.769 188.828C374.036 189.496 374.358 190.209 374.737 190.965C377.395 196.272 377.395 201.069 374.737 205.355C378.622 206.58 380.871 209.54 381.484 214.235C382.098 218.93 380.973 222.604 378.111 225.258C382.736 233.878 379.498 244.615 370.878 249.241C370.389 249.503 369.889 249.742 369.378 249.957L367.683 250.671L306.957 270.88L295.302 291.701L255.432 262Z" fill="white"/>
</mask>
<g mask="url(#mask4_1297_1405)">
<path d="M255.432 262L332.056 191.676C334.246 189.666 336.926 188.269 339.827 187.624L338.351 194.021L365.14 184.86C368.614 183.671 372.41 185.417 373.769 188.828C374.036 189.496 374.358 190.209 374.737 190.965C377.395 196.272 377.395 201.069 374.737 205.355C378.622 206.58 380.871 209.54 381.484 214.235C382.098 218.93 380.973 222.604 378.111 225.258C382.736 233.878 379.498 244.615 370.878 249.241C370.389 249.503 369.889 249.742 369.378 249.957L367.683 250.671L306.957 270.88L295.302 291.701L255.432 262Z" fill="#FF8181"/>
<path fill-rule="evenodd" clip-rule="evenodd" d="M340.319 193.283L321.863 201.156C325.603 195.705 328.884 191.851 331.708 189.592C334.531 187.333 337.812 185.939 341.549 185.409L340.319 193.283Z" fill="#C55858"/>
<path d="M377.52 225.169C377.846 224.925 378.309 224.992 378.553 225.319C378.797 225.646 378.73 226.108 378.403 226.352C376.274 227.942 373.728 229.13 370.77 229.919C370.376 230.024 369.972 229.789 369.867 229.395C369.762 229.002 369.996 228.597 370.39 228.492C373.173 227.75 375.548 226.642 377.52 225.169ZM373.848 204.95C374.179 204.713 374.64 204.789 374.878 205.12C375.115 205.452 375.039 205.913 374.707 206.15C372.498 207.733 369.893 208.867 366.899 209.554C366.502 209.645 366.106 209.397 366.015 209C365.924 208.603 366.172 208.207 366.569 208.115C369.378 207.471 371.803 206.415 373.848 204.95Z" fill="#C55858"/>
</g>
<path fill-rule="evenodd" clip-rule="evenodd" d="M234.278 77.6419C244.333 77.6419 252.485 69.8207 252.485 60.1728C252.485 50.5248 244.333 42.7036 234.278 42.7036C224.222 42.7036 216.07 50.5248 216.07 60.1728C216.07 67.7135 221.05 74.1382 228.026 76.585C229.976 77.2688 232.081 77.6419 234.278 77.6419Z" fill="#FF8181"/>
<mask id="mask5_1297_1405" style="mask-type:alpha" maskUnits="userSpaceOnUse" x="214" y="73" width="29" height="37">
<path d="M223.717 74.4331C225.152 75.3113 226.705 76.1067 228.419 76.7447C227.092 76.9875 225.816 77.5988 224.754 78.5846C219.278 83.6681 217.047 91.3537 218.948 98.5795L219.262 99.7723C219.513 100.73 219.941 101.632 220.523 102.433C223.114 106.001 228.108 106.793 231.677 104.202L231.986 103.977C238.326 99.3735 240.664 91.0127 237.632 83.7885L236.513 81.1227C236.18 80.3293 235.71 79.6006 235.125 78.97C234.345 78.1303 233.415 77.5142 232.414 77.1248C232.85 75.0612 233.123 73.7657 233.233 73.2383C235.003 73.8117 236.654 74.8317 238.01 76.2916C238.909 77.2606 239.631 78.3802 240.143 79.5992L241.262 82.265C245.001 91.1742 242.118 101.485 234.299 107.163L233.99 107.387C228.662 111.256 221.206 110.074 217.337 104.746C216.469 103.55 215.83 102.203 215.454 100.774L215.141 99.5812C212.87 90.9508 215.536 81.7711 222.076 75.6995C222.593 75.2197 223.142 74.7977 223.717 74.4331Z" fill="white"/>
</mask>
<g mask="url(#mask5_1297_1405)">
<path d="M223.717 74.4331C225.152 75.3113 226.705 76.1067 228.419 76.7447C227.092 76.9875 225.816 77.5988 224.754 78.5846C219.278 83.6681 217.047 91.3537 218.948 98.5795L219.262 99.7723C219.513 100.73 219.941 101.632 220.523 102.433C223.114 106.001 228.108 106.793 231.677 104.202L231.986 103.977C238.326 99.3735 240.664 91.0127 237.632 83.7885L236.513 81.1227C236.18 80.3293 235.71 79.6006 235.125 78.97C234.345 78.1303 233.415 77.5142 232.414 77.1248C232.85 75.0612 233.123 73.7657 233.233 73.2383C235.003 73.8117 236.654 74.8317 238.01 76.2916C238.909 77.2606 239.631 78.3802 240.143 79.5992L241.262 82.265C245.001 91.1742 242.118 101.485 234.299 107.163L233.99 107.387C228.662 111.256 221.206 110.074 217.337 104.746C216.469 103.55 215.83 102.203 215.454 100.774L215.141 99.5812C212.87 90.9508 215.536 81.7711 222.076 75.6995C222.593 75.2197 223.142 74.7977 223.717 74.4331Z" fill="#F2FF9E"/>
<path fill-rule="evenodd" clip-rule="evenodd" d="M216.311 65.8322L234.272 64.1099L225.169 120.946L209.176 117.009L216.311 65.8322Z" fill="#CEDF62"/>
</g>
<path fill-rule="evenodd" clip-rule="evenodd" d="M115.425 31.3857V68.5009L149.389 60.6537L117.972 78.8932L149.389 89.9217L115.425 85.892L117.972 118.978L104.811 88.6492L86.5559 113.039L98.4432 83.5591C74.6686 75.4998 62.7812 71.4701 62.7812 71.4701C62.7812 71.4701 74.6686 71.965 98.4432 72.9547L86.5559 46.8681L104.811 66.168L115.425 31.3857ZM446.494 250.265L444.792 201.503L408.421 217.963L437.637 189.338L401.755 162.888L443.994 178.654L439.139 135.303L457.772 174.546L480.569 141.667L466.348 180.942C495.646 182.39 510.294 183.114 510.294 183.114C510.294 183.114 495.808 187.034 466.835 194.874L483.604 228.603L458.803 204.082L446.494 250.265Z" fill="#FAFAFA"/>
<path fill-rule="evenodd" clip-rule="evenodd" d="M66.166 213.446L75.498 236.565L57.4196 234.183L75.0229 242.935C61.8935 252.694 55.3287 257.574 55.3287 257.574C55.3287 257.574 63.4181 254.577 79.5969 248.583L85.9613 269.429L85.1948 248.539L105.308 259L89.6763 242.479L109.561 229.93L88.0185 237.649L96.9367 214.341L82.175 233.215L66.166 213.446Z" fill="#383838"/>
<path d="M75.8998 289.974C102.939 282.729 118.985 254.936 111.74 227.897C104.495 200.859 76.702 184.812 49.6632 192.057C22.6244 199.303 6.57833 227.095 13.8234 254.134C21.0684 281.173 48.8609 297.219 75.8998 289.974Z" fill="#383838"/>
<path d="M49.9242 247.277L51.1245 251.756L46.9987 252.862L47.8989 256.222L42.5943 257.643L41.6941 254.283L27.136 258.184L25.9357 253.705L37.0668 237.014L42.3714 235.593L45.7984 248.383L49.9242 247.277ZM31.6529 252.173L40.4939 249.804L38.4882 242.319L31.6529 252.173ZM65.5714 251.802C57.3788 253.997 52.478 251.267 50.6381 244.401C48.8061 237.564 51.6933 232.779 59.886 230.584C68.0491 228.396 72.9794 231.118 74.8035 237.926C76.6354 244.763 73.7346 249.615 65.5714 251.802ZM64.379 247.352C69.0353 246.104 70.5333 243.208 69.4989 239.347C68.4723 235.516 65.7346 233.786 61.0783 235.034C56.4221 236.281 54.9083 239.119 55.9427 242.98C56.985 246.87 59.7228 248.6 64.379 247.352ZM101.202 233.537L102.402 238.017L98.2764 239.122L99.1766 242.482L93.872 243.903L92.9718 240.544L78.4136 244.444L77.2134 239.965L88.3445 223.274L93.6491 221.853L97.0761 234.643L101.202 233.537ZM82.9306 238.433L91.7715 236.064L89.7658 228.579L82.9306 238.433Z" fill="white"/>
<path fill-rule="evenodd" clip-rule="evenodd" d="M287.335 78.5883C286.275 78.3438 286.007 77.4522 286.191 76.6578C286.374 75.8634 286.94 75.4669 287.999 75.7115C289.058 75.956 289.326 76.8476 289.143 77.642C288.96 78.4364 288.394 78.8329 287.335 78.5883ZM297.669 78.0962C296.609 77.8517 296.341 77.4522 296.524 76.6578C296.708 75.8634 297.274 74.9748 298.333 75.2194C299.392 75.4639 299.66 76.3555 299.477 77.1499C299.294 77.9443 298.728 78.3408 297.669 78.0962ZM293.24 83.5092C292.181 83.2647 291.912 82.3731 292.096 81.5787C292.279 80.7843 292.845 80.3878 293.904 80.6323C294.963 80.8769 295.232 81.5224 295.048 82.3168C294.865 83.1112 294.299 83.7538 293.24 83.5092ZM283.398 84.9855C282.339 84.7409 281.824 84.3415 282.008 83.547C282.191 82.7526 283.003 81.8641 284.062 82.1086C285.121 82.3532 285.144 82.9987 284.96 83.7931C284.777 84.5875 284.457 85.23 283.398 84.9855ZM276.509 76.62C275.45 76.3754 274.935 75.7299 275.119 74.9355C275.302 74.1411 276.114 73.4986 277.173 73.7431C278.232 73.9876 278.501 75.1252 278.317 75.9197C278.134 76.7141 277.568 76.8645 276.509 76.62Z" fill="#C55858"/>
</svg>
