<svg width="104" height="16" viewBox="0 0 104 16" fill="none" xmlns="http://www.w3.org/2000/svg">
<path d="M0.96 12H3.52V8.032H7.936V12H10.496V8.4C10.496 7.52 10.016 7.04 9.136 7.04H7.488V6.4C8.848 6.24 10.352 5.728 10.352 3.872C10.352 1.344 8.016 0.719999 5.328 0.719999H0.96V12ZM3.52 5.792V2.96H5.328C6.848 2.96 7.792 2.96 7.792 4.384C7.792 5.792 6.848 5.792 5.328 5.792H3.52ZM15.8365 9.92C14.6045 9.92 14.1725 9.36 14.1725 7.888V3.92H11.6125V8.288C11.6125 10.784 12.8605 12.16 14.9245 12.16C16.6525 12.16 17.6605 11.024 17.9805 9.584H18.6205L18.1405 11.024V12H20.7005V3.92H18.1405V6.912C18.1405 9.184 17.2285 9.92 15.8365 9.92ZM26.14 9.92V6.16H28.796V3.92H26.14V1.6L23.58 2.4V3.92H21.66V6.16H23.58V10.8C23.58 11.68 24.06 12.192 24.94 12.16L29.116 12V9.76L26.14 9.92ZM36.1735 3.76C34.4455 3.76 33.4375 4.896 33.1175 6.336H32.4775L32.9575 4.896V0.24H30.3975V12H32.9575V9.008C32.9575 6.736 33.8695 6 35.2615 6C36.4935 6 36.9255 6.56 36.9255 8.032V12H39.4855V7.632C39.4855 5.136 38.2375 3.76 36.1735 3.76ZM53.2456 2.96V0.719999H45.5656V2.96H48.1256V9.76H45.5656V12H53.2456V9.76H50.6856V2.96H53.2456ZM61.0464 12H63.9584L61.2224 7.856L62.4704 7.28C63.1744 6.944 63.4784 6.448 63.4784 5.68V3.92H60.9184L60.9504 5.376L57.2544 7.072V0.24H54.6944V12H57.2544V9.712L59.0304 8.88L61.0464 12ZM64.1244 7.856C64.1244 10.144 65.5484 12.16 68.6524 12.16C71.4524 12.16 72.7804 10.32 72.9404 9.152H70.3804C70.2204 9.76 69.5484 10.08 68.6524 10.08C67.1964 10.08 66.5244 9.424 66.5244 8.496H72.6524V7.696C72.6524 5.248 70.8924 3.76 68.3804 3.76C65.8684 3.76 64.1244 5.296 64.1244 7.856ZM66.5244 7.056C66.5244 6.448 66.9564 5.84 68.3804 5.84C69.8044 5.84 70.2524 6.448 70.2524 7.056H66.5244ZM83.2133 3.92C82.4933 3.92 81.6613 4 81.1813 4.624C80.3333 4 79.2133 3.76 77.9813 3.76C75.4373 3.76 73.4213 4.784 73.4213 6.912C73.4213 9.568 76.5413 10 79.5013 8.944V9.584C78.0293 9.936 76.3653 10.128 74.5253 10.32L74.7973 11.76C77.2773 11.344 80.1733 10.816 80.1733 12C80.1733 12.88 79.1813 12.96 73.9493 12.96V15.2C79.9493 15.2 82.7493 14.928 82.7493 12.544C82.7493 10.832 81.0373 10.352 79.1973 10.464C81.4213 9.712 82.8453 8.752 82.8453 7.232C82.8453 6.8 82.7173 6.432 82.6213 6.304C82.8453 6.16 83.1333 6.16 83.3733 6.16H83.9173V3.92H83.2133ZM78.1413 8.144C76.6053 8.144 75.9813 7.76 75.9813 7.072C75.9813 6.4 76.6053 6 78.1413 6C79.6773 6 80.2853 6.4 80.2853 7.072C80.2853 7.76 79.6773 8.144 78.1413 8.144ZM84.4056 9.792C84.4056 10.624 84.8376 12.16 87.3496 12.16C89.6056 12.16 90.3896 11.024 90.6936 9.68H91.3336L90.9336 10.64V10.8C90.9336 11.568 91.3656 12 92.1336 12H93.9096V9.76H92.7416V7.488C92.7416 4.832 90.7896 3.76 88.5656 3.76C86.3096 3.76 84.5656 4.96 84.5656 7.008H86.9656C86.9656 6.272 87.5416 5.84 88.5656 5.84C89.6696 5.84 90.1816 6.24 90.1816 6.896L87.6376 7.248C85.2376 7.584 84.4056 8.4 84.4056 9.792ZM86.9656 9.312C86.9656 8.848 87.3496 8.736 88.1176 8.624L90.1816 8.336C90.1816 9.328 89.2536 9.92 87.8456 9.92C87.4136 9.92 86.9656 9.776 86.9656 9.312ZM100.642 3.76C98.9143 3.76 97.9062 4.896 97.5863 6.336H96.9463L97.4263 4.896V0.24H94.8663V12H97.4263V9.008C97.4263 6.736 98.3383 6 99.7303 6C100.962 6 101.394 6.56 101.394 8.032V12H103.954V7.632C103.954 5.136 102.706 3.76 100.642 3.76Z" fill="white"/>
</svg>
